{
  "accessors": [
    {
      "bufferView": 2,
      "componentType": 5126,
      "count": 65532,
      "max": [
        7.9188385009765625,
        23.509456634521484,
        15.653974533081055
      ],
      "min": [
        0.5908203125,
        1.0861473083496094,
        6.252701759338379
      ],
      "type": "VEC3"
    },
    {
      "bufferView": 2,
      "byteOffset": 786384,
      "componentType": 5126,
      "count": 65532,
      "max": [
        0.9971106648445129,
        0.999991774559021,
        0.9999966621398926
      ],
      "min": [
        -0.999976634979248,
        -0.9829229712486267,
        -0.999971330165863
      ],
      "type": "VEC3"
    },
    {
      "bufferView": 1,
      "componentType": 5126,
      "count": 65532,
      "max": [
        0.9992679953575134,
        0.9992629885673523
      ],
      "min": [
        0.0007319999858736992,
        0.000737000023946166
      ],
      "type": "VEC2"
    },
    {
      "bufferView": 0,
      "componentType": 5125,
      "count": 347082,
      "type": "SCALAR"
    },
    {
      "bufferView": 2,
      "byteOffset": 1572768,
      "componentType": 5126,
      "count": 65533,
      "max": [
        13.110929489135742,
        30.955076217651367,
        19.636945724487305
      ],
      "min": [
        0.0,
        1.0142250061035156,
        0.4259004592895508
      ],
      "type": "VEC3"
    },
    {
      "bufferView": 2,
      "byteOffset": 2359164,
      "componentType": 5126,
      "count": 65533,
      "max": [
        0.9999576210975647,
        0.9998819828033447,
        0.9999966621398926
      ],
      "min": [
        -0.9999966621398926,
        -0.999920666217804,
        -0.9996214509010315
      ],
      "type": "VEC3"
    },
    {
      "bufferView": 1,
      "byteOffset": 524256,
      "componentType": 5126,
      "count": 65533,
      "max": [
        0.9987789988517761,
        0.9981570243835449
      ],
      "min": [
        0.00228299992159009,
        0.000737000023946166
      ],
      "type": "VEC2"
    },
    {
      "bufferView": 0,
      "byteOffset": 1388328,
      "componentType": 5125,
      "count": 351855,
      "type": "SCALAR"
    },
    {
      "bufferView": 2,
      "byteOffset": 3145560,
      "componentType": 5126,
      "count": 65532,
      "max": [
        13.09318733215332,
        31.066852569580078,
        15.714973449707031
      ],
      "min": [
        0.05070018768310547,
        0.7681636810302734,
        0.0
      ],
      "type": "VEC3"
    },
    {
      "bufferView": 2,
      "byteOffset": 3931944,
      "componentType": 5126,
      "count": 65532,
      "max": [
        0.9999971389770508,
        0.9999991059303284,
        0.9999802112579346
      ],
      "min": [
        -0.9996556639671326,
        -0.9999778866767883,
        -0.9998455047607422
      ],
      "type": "VEC3"
    },
    {
      "bufferView": 1,
      "byteOffset": 1048520,
      "componentType": 5126,
      "count": 65532,
      "max": [
        0.9992679953575134,
        0.9984019994735718
      ],
      "min": [
        0.0007319999858736992,
        0.000737000023946166
      ],
      "type": "VEC2"
    },
    {
      "bufferView": 0,
      "byteOffset": 2795748,
      "componentType": 5125,
      "count": 340173,
      "type": "SCALAR"
    },
    {
      "bufferView": 2,
      "byteOffset": 4718328,
      "componentType": 5126,
      "count": 65532,
      "max": [
        7.985718250274658,
        15.717477798461914,
        14.341392517089844
      ],
      "min": [
        1.386986255645752,
        1.401693344116211,
        0.16526412963867188
      ],
      "type": "VEC3"
    },
    {
      "bufferView": 2,
      "byteOffset": 5504712,
      "componentType": 5126,
      "count": 65532,
      "max": [
        0.9945597648620605,
        0.999888002872467,
        0.9999802112579346
      ],
      "min": [
        -0.9999861121177673,
        -0.9998866319656372,
        -0.9999284744262695
      ],
      "type": "VEC3"
    },
    {
      "bufferView": 1,
      "byteOffset": 1572776,
      "componentType": 5126,
      "count": 65532,
      "max": [
        0.9992679953575134,
        0.9990170001983643
      ],
      "min": [
        0.0007319999858736992,
        0.015362000092864037
      ],
      "type": "VEC2"
    },
    {
      "bufferView": 0,
      "byteOffset": 4156440,
      "componentType": 5125,
      "count": 334509,
      "type": "SCALAR"
    },
    {
      "bufferView": 2,
      "byteOffset": 6291096,
      "componentType": 5126,
      "count": 65532,
      "max": [
        7.915987014770508,
        31.064294815063477,
        15.422014236450195
      ],
      "min": [
        0.24961614608764648,
        0.0,
        7.654441833496094
      ],
      "type": "VEC3"
    },
    {
      "bufferView": 2,
      "byteOffset": 7077480,
      "componentType": 5126,
      "count": 65532,
      "max": [
        0.9998794794082642,
        0.994293749332428,
        0.9999956488609314
      ],
      "min": [
        -0.9999836683273315,
        -0.9999978542327881,
        -0.9998418688774109
      ],
      "type": "VEC3"
    },
    {
      "bufferView": 1,
      "byteOffset": 2097032,
      "componentType": 5126,
      "count": 65532,
      "max": [
        0.9992679953575134,
        0.9987710118293762
      ],
      "min": [
        0.0007319999858736992,
        0.000737000023946166
      ],
      "type": "VEC2"
    },
    {
      "bufferView": 0,
      "byteOffset": 5494476,
      "componentType": 5125,
      "count": 350997,
      "type": "SCALAR"
    },
    {
      "bufferView": 2,
      "byteOffset": 7863864,
      "componentType": 5126,
      "count": 1646,
      "max": [
        3.479116201400757,
        5.973991394042969,
        10.586429595947266
      ],
      "min": [
        1.4463472366333008,
        1.0504379272460938,
        7.715030670166016
      ],
      "type": "VEC3"
    },
    {
      "bufferView": 2,
      "byteOffset": 7883616,
      "componentType": 5126,
      "count": 1646,
      "max": [
        0.030075008049607277,
        0.8195431232452393,
        0.784152626991272
      ],
      "min": [
        -0.9998827576637268,
        -0.9997879862785339,
        -0.9235777854919434
      ],
      "type": "VEC3"
    },
    {
      "bufferView": 1,
      "byteOffset": 2621288,
      "componentType": 5126,
      "count": 1646,
      "max": [
        0.9987789988517761,
        0.9164310097694397
      ],
      "min": [
        0.0007319999858736992,
        0.1431729942560196
      ],
      "type": "VEC2"
    },
    {
      "bufferView": 0,
      "byteOffset": 6898464,
      "componentType": 5125,
      "count": 6105,
      "type": "SCALAR"
    }
  ],
  "asset": {
    "extras": {
      "author": "Geoffrey Marchal (https://sketchfab.com/geoffreymarchal)",
      "license": "CC-BY-NC-SA-4.0 (http://creativecommons.org/licenses/by-nc-sa/4.0/)",
      "source": "https://sketchfab.com/3d-models/bust-of-a-rhetorician-6a08e5177c594f13b9da79c59287f1f3",
      "title": "Bust of a rhetorician"
    },
    "generator": "Sketchfab-15.12.0",
    "version": "2.0"
  },
  "bufferViews": [
    {
      "buffer": 0,
      "byteLength": 6922884,
      "name": "floatBufferViews",
      "target": 34963
    },
    {
      "buffer": 0,
      "byteLength": 2634456,
      "byteOffset": 6922884,
      "byteStride": 8,
      "name": "floatBufferViews",
      "target": 34962
    },
    {
      "buffer": 0,
      "byteLength": 7903368,
      "byteOffset": 9557340,
      "byteStride": 12,
      "name": "floatBufferViews",
      "target": 34962
    }
  ],
  "buffers": [
    {
      "byteLength": 17460708,
      "uri": "ene.bin"
    }
  ],
  "extensionsUsed": [
    "KHR_materials_specular"
  ],
  "images": [
    {
      "uri": "textures/Material_0_baseColor.jpeg"
    },
    {
      "uri": "textures/Material_0_metallicRoughness.png"
    },
    {
      "uri": "textures/Material_0_specularf0.png"
    }
  ],
  "materials": [
    {
      "doubleSided": true,
      "extensions": {
        "KHR_materials_specular": {
          "specularColorFactor": [
            1.0,
            1.0,
            1.0
          ],
          "specularFactor": 1.0,
          "specularTexture": {
            "index": 2
          }
        }
      },
      "name": "Material_0",
      "pbrMetallicRoughness": {
        "baseColorTexture": {
          "index": 0
        },
        "metallicFactor": 0.0,
        "metallicRoughnessTexture": {
          "index": 1
        }
      }
    }
  ],
  "meshes": [
    {
      "name": "Object_0",
      "primitives": [
        {
          "attributes": {
            "NORMAL": 1,
            "POSITION": 0,
            "TEXCOORD_0": 2
          },
          "indices": 3,
          "material": 0,
          "mode": 4
        }
      ]
    },
    {
      "name": "Object_1",
      "primitives": [
        {
          "attributes": {
            "NORMAL": 5,
            "POSITION": 4,
            "TEXCOORD_0": 6
          },
          "indices": 7,
          "material": 0,
          "mode": 4
        }
      ]
    },
    {
      "name": "Object_2",
      "primitives": [
        {
          "attributes": {
            "NORMAL": 9,
            "POSITION": 8,
            "TEXCOORD_0": 10
          },
          "indices": 11,
          "material": 0,
          "mode": 4
        }
      ]
    },
    {
      "name": "Object_3",
      "primitives": [
        {
          "attributes": {
            "NORMAL": 13,
            "POSITION": 12,
            "TEXCOORD_0": 14
          },
          "indices": 15,
          "material": 0,
          "mode": 4
        }
      ]
    },
    {
      "name": "Object_4",
      "primitives": [
        {
          "attributes": {
            "NORMAL": 17,
            "POSITION": 16,
            "TEXCOORD_0": 18
          },
          "indices": 19,
          "material": 0,
          "mode": 4
        }
      ]
    },
    {
      "name": "Object_5",
      "primitives": [
        {
          "attributes": {
            "NORMAL": 21,
            "POSITION": 20,
            "TEXCOORD_0": 22
          },
          "indices": 23,
          "material": 0,
          "mode": 4
        }
      ]
    }
  ],
  "nodes": [
    {
      "children": [
        1
      ],
      "matrix": [
        -0.40650391578674316,
        0.002223728457465971,
        -0.9136463403701782,
        0.0,
        -0.005470292177051306,
        -0.9999850392341614,
        -2.220412829676913e-16,
        0.0,
        -0.9136326313018799,
        0.0049979123286902,
        0.40650999546051025,
        0.0,
        0.0,
        0.0,
        0.0,
        1.0
      ],
      "name": "Sketchfab_model"
    },
    {
      "children": [
        2
      ],
      "matrix": [
        1.0,
        0.0,
        0.0,
        0.0,
        0.0,
        1.0,
        0.0,
        0.0,
        0.0,
        0.0,
        1.0,
        0.0,
        -5.303027153015137,
        -26.757545471191406,
        -11.226431846618652,
        1.0
      ],
      "name": "mentor roman.obj.cleaner.materialmerger.gles"
    },
    {
      "children": [
        3,
        4,
        5,
        6,
        7,
        8
      ],
      "name": "Object_2"
    },
    {
      "mesh": 0,
      "name": "Object_3"
    },
    {
      "mesh": 1,
      "name": "Object_4"
    },
    {
      "mesh": 2,
      "name": "Object_5"
    },
    {
      "mesh": 3,
      "name": "Object_6"
    },
    {
      "mesh": 4,
      "name": "Object_7"
    },
    {
      "mesh": 5,
      "name": "Object_8"
    }
  ],
  "samplers": [
    {
      "magFilter": 9729,
      "minFilter": 9987,
      "wrapS": 10497,
      "wrapT": 10497
    },
    {
      "magFilter": 9728,
      "minFilter": 9728,
      "wrapS": 10497,
      "wrapT": 10497
    }
  ],
  "scene": 0,
  "scenes": [
    {
      "name": "Sketchfab_Scene",
      "nodes": [
        0
      ]
    }
  ],
  "textures": [
    {
      "sampler": 0,
      "source": 0
    },
    {
      "sampler": 1,
      "source": 1
    },
    {
      "sampler": 1,
      "source": 2
    }
  ]
}
